<svg xmlns="http://www.w3.org/2000/svg" viewBox="0 0 100 100">
  <defs/>
  <g fill="none" fill-rule="evenodd">
    <path fill="#000" d="M33 61h1l2-1 2 1 1 2 4-3-2-1-1-2-4-1-4 1-2 2-1 1 3 3 1-2zm28 0h1l2-1 2 1 1 2 4-3-2-1-1-2-4-1-4 1-2 2-1 1 3 3 1-2z"/>
    <path fill="#000" d="M81 30c9 9 9 20 9 20v20s0 20-40 20-40-20-40-20V50s0-11 9-20L8 12a2 2 0 014-2l10 18c6-5 15-8 28-8s22 3 28 8l10-18a2 2 0 014 2L81 30zM14 50v22l4 5c5 6 15 9 32 9s27-3 32-9a14 14 0 004-7V50v-1l-1-3-3-9c-6-8-16-13-32-13s-26 5-32 13a26 26 0 00-4 13z"/>
    <rect width="60" height="30" x="20" y="45" stroke="#000" stroke-width="4" rx="15"/>
  </g>
</svg>
